<svg height="408pt" viewBox="0 -37 408.56235 408" width="408pt" xmlns="http://www.w3.org/2000/svg"><path d="m41.019531 182.878906c0 9.441406-7.652343 17.097656-17.09375 17.097656-9.445312 0-17.097656-7.65625-17.097656-17.097656s7.652344-17.09375 17.097656-17.09375c9.441407 0 17.09375 7.652344 17.09375 17.09375zm0 0" fill="#fff"/><path d="m23.921875 206.800781c-13.1875 0-23.921875-10.734375-23.921875-23.921875s10.734375-23.921875 23.921875-23.921875c13.191406 0 23.925781 10.734375 23.925781 23.921875s-10.734375 23.921875-23.925781 23.921875zm0-34.1875c-5.660156 0-10.269531 4.605469-10.269531 10.265625 0 5.664063 4.605468 10.269532 10.269531 10.269532s10.273437-4.605469 10.273437-10.269532c0-5.660156-4.605468-10.265625-10.273437-10.265625zm0 0" fill="#602f75"/><path d="m128.214844 80.308594c0 14.164062-11.480469 25.644531-25.640625 25.644531-14.164063 0-25.644531-11.480469-25.644531-25.644531 0-14.160156 11.480468-25.640625 25.644531-25.640625 14.160156 0 25.640625 11.480469 25.640625 25.640625zm0 0" fill="#ffe600"/><path d="m102.574219 112.78125c-17.90625 0-32.472657-14.566406-32.472657-32.472656 0-17.898438 14.566407-32.464844 32.472657-32.464844 17.898437 0 32.464843 14.566406 32.464843 32.464844.003907 17.90625-14.5625 32.472656-32.464843 32.472656zm0-51.285156c-10.378907 0-18.820313 8.4375-18.820313 18.8125 0 10.378906 8.441406 18.816406 18.820313 18.816406 10.371093 0 18.8125-8.4375 18.8125-18.816406 0-10.375-8.441407-18.8125-18.8125-18.8125zm0 0" fill="#602f75"/><path d="m213.820312 202.171875-115.519531 31.992187c-40.128906 0-72.65625-32.527343-72.65625-72.652343s32.527344-72.652344 72.65625-72.652344l260.695313-25.644531 17.09375 94.023437-100.261719 27.765625" fill="#eaeaea"/><path d="m98.300781 240.996094c-43.828125 0-79.480469-35.65625-79.480469-79.480469s35.65625-79.480469 79.480469-79.480469l260.027344-25.613281c3.597656-.300781 6.746094 2.082031 7.378906 5.574219l17.09375 94.027344c.632813 3.472656-1.488281 6.859374-4.894531 7.800781l-100.257812 27.757812c-3.601563.988281-7.386719-1.117187-8.402344-4.757812-1.007813-3.632813 1.128906-7.394531 4.761718-8.402344l94.246094-26.09375-14.851562-81.703125-254.433594 25.027344c-36.96875.035156-66.496094 29.558594-66.496094 65.859375 0 35.996093 29.042969 65.335937 64.921875 65.820312l114.605469-31.738281c3.585938-.996094 7.386719 1.109375 8.402344 4.757812 1.003906 3.632813-1.128906 7.394532-4.761719 8.402344l-115.519531 31.992188c-.59375.160156-1.207032.25-1.820313.25zm0 0" fill="#602f75"/><path d="m256.425781 251.261719c0 42.484375-34.441406 76.925781-76.925781 76.925781-42.488281 0-76.925781-34.441406-76.925781-76.925781 0-42.488281 34.4375-76.929688 76.925781-76.929688 42.484375 0 76.925781 34.441407 76.925781 76.929688zm0 0" fill="#00e7ff"/><path d="m179.5 335.011719c-46.179688 0-83.753906-37.574219-83.753906-83.75 0-46.179688 37.574218-83.753907 83.753906-83.753907s83.753906 37.574219 83.753906 83.753907c0 46.175781-37.574218 83.75-83.753906 83.75zm0-153.851563c-38.652344 0-70.097656 31.449219-70.097656 70.101563 0 38.652343 31.445312 70.097656 70.097656 70.097656s70.101562-31.445313 70.101562-70.097656c0-38.652344-31.445312-70.101563-70.101562-70.101563zm0 0" fill="#602f75"/><path d="m213.816406 251.261719c0 18.953125-15.363281 34.316406-34.316406 34.316406-18.957031 0-34.320312-15.363281-34.320312-34.316406 0-18.957031 15.363281-34.320313 34.320312-34.320313 18.953125 0 34.316406 15.363282 34.316406 34.320313zm0 0" fill="#ea3457"/><path d="m179.5 292.40625c-22.6875 0-41.144531-18.457031-41.144531-41.144531s18.457031-41.144531 41.144531-41.144531 41.144531 18.457031 41.144531 41.144531-18.457031 41.144531-41.144531 41.144531zm0-68.640625c-15.160156 0-27.492188 12.335937-27.492188 27.496094 0 15.15625 12.332032 27.492187 27.492188 27.492187s27.492188-12.335937 27.492188-27.492187c0-15.160157-12.332032-27.496094-27.492188-27.496094zm0 0" fill="#602f75"/><g fill="#ea3457"><path d="m367.542969 259.808594c0 9.441406-7.652344 17.09375-17.09375 17.09375-9.441407 0-17.097657-7.652344-17.097657-17.09375s7.65625-17.097656 17.097657-17.097656c9.441406 0 17.09375 7.65625 17.09375 17.097656zm0 0"/><path d="m350.449219 283.726562c-13.1875 0-23.921875-10.730468-23.921875-23.917968s10.734375-23.921875 23.921875-23.921875 23.917969 10.734375 23.917969 23.921875-10.734376 23.917968-23.917969 23.917968zm0-34.1875c-5.660157 0-10.269531 4.605469-10.269531 10.269532 0 5.660156 4.609374 10.265625 10.269531 10.265625 5.660156 0 10.265625-4.605469 10.265625-10.265625 0-5.664063-4.605469-10.269532-10.265625-10.269532zm0 0"/><path d="m401.734375 311.089844c0 9.441406-7.65625 17.097656-17.097656 17.097656-9.441407 0-17.09375-7.65625-17.09375-17.097656s7.652343-17.09375 17.09375-17.09375c9.441406 0 17.097656 7.652344 17.097656 17.09375zm0 0"/><path d="m384.640625 335.011719c-13.191406 0-23.925781-10.730469-23.925781-23.917969 0-13.195312 10.734375-23.929688 23.925781-23.929688 13.1875 0 23.921875 10.734376 23.921875 23.929688 0 13.1875-10.734375 23.917969-23.921875 23.917969zm0-34.191407c-5.664063 0-10.273437 4.605469-10.273437 10.273438 0 5.660156 4.605468 10.269531 10.273437 10.269531 5.660156 0 10.269531-4.609375 10.269531-10.269531-.003906-5.667969-4.609375-10.273438-10.269531-10.273438zm0 0"/><path d="m335.074219 311.089844c0 9.441406-7.652344 17.097656-17.09375 17.097656-9.441407 0-17.097657-7.65625-17.097657-17.097656s7.65625-17.09375 17.097657-17.09375c9.441406 0 17.09375 7.652344 17.09375 17.09375zm0 0"/><path d="m317.980469 335.011719c-13.191407 0-23.925781-10.730469-23.925781-23.917969 0-13.195312 10.730468-23.929688 23.925781-23.929688 13.1875 0 23.921875 10.734376 23.921875 23.929688 0 13.1875-10.734375 23.917969-23.921875 23.917969zm0-34.191407c-5.664063 0-10.273438 4.605469-10.273438 10.273438 0 5.660156 4.605469 10.269531 10.273438 10.269531 5.660156 0 10.269531-4.609375 10.269531-10.269531 0-5.667969-4.609375-10.273438-10.269531-10.273438zm0 0"/></g><path d="m95.054688 34.414062c-3.773438 0-6.828126-3.054687-6.828126-6.828124v-20.476563c0-3.773437 3.054688-6.828125 6.828126-6.828125 3.773437 0 6.828124 3.054688 6.828124 6.828125v20.476563c0 3.773437-3.054687 6.828124-6.828124 6.828124zm0 0" fill="#602f75"/><path d="m137.773438 54.488281c-1.964844 0-3.914063-.839843-5.257813-2.46875-2.40625-2.90625-2.007813-7.207031.890625-9.613281l15.765625-13.074219c2.902344-2.417969 7.214844-2 9.613281.894531 2.40625 2.90625 2.007813 7.207032-.890625 9.613282l-15.765625 13.074218c-1.273437 1.0625-2.820312 1.574219-4.355468 1.574219zm0 0" fill="#602f75"/><path d="m59.160156 54.488281c-1.53125 0-3.070312-.515625-4.351562-1.574219l-15.765625-13.074218c-2.902344-2.40625-3.300781-6.707032-.894531-9.613282 2.398437-2.886718 6.695312-3.308593 9.613281-.894531l15.765625 13.074219c2.902344 2.40625 3.300781 6.707031.894531 9.613281-1.347656 1.628907-3.292969 2.46875-5.261719 2.46875zm0 0" fill="#602f75"/><path d="m296.132812 104.71875c-3.414062 0-6.363281-2.550781-6.773437-6.03125-.441406-3.738281 2.238281-7.132812 5.988281-7.574219l17.367188-2.039062c3.640625-.488281 7.132812 2.234375 7.574218 5.988281.441407 3.738281-2.238281 7.132812-5.988281 7.574219l-17.367187 2.039062c-.265625.03125-.53125.042969-.800782.042969zm0 0" fill="#602f75"/><path d="m197.449219 116.335938c-3.414063 0-6.367188-2.554688-6.773438-6.027344-.441406-3.746094 2.238281-7.140625 5.976563-7.578125l55.042968-6.476563c3.757813-.492187 7.140626 2.234375 7.578126 5.980469s-2.238282 7.140625-5.980469 7.582031l-55.039063 6.472656c-.273437.03125-.539062.046876-.804687.046876zm0 0" fill="#602f75"/></svg>